<svg width="100" height="100" viewBox="0 0 20 20" xmlns="http://www.w3.org/2000/svg"><g clip-path="url(#clip0)" fill="#277A9F"><path d="M13.954 14.763c.294-.22 1.026.293 1.613 1.1.586.806.806 1.612.44 1.832-.294.22-1.027-.294-1.613-1.1-.513-.732-.733-1.612-.44-1.832zm-7.401 0c-.293-.22-1.026.293-1.612 1.1-.586.806-.806 1.612-.44 1.832.294.22 1.026-.294 1.613-1.1.586-.806.732-1.612.44-1.832zm3.737 1.319c-.366 0-.66.807-.66 1.76 0 .952.294 1.758.66 1.758.367 0 .66-.806.66-1.759 0-.952-.293-1.759-.66-1.759zm3.665-10.846c.293.22 1.026-.293 1.612-1.099.586-.806.806-1.612.44-1.832-.293-.22-1.026.293-1.54 1.1-.512.805-.805 1.611-.512 1.831zm-7.402 0c-.293.22-1.026-.293-1.612-1.099-.586-.806-.806-1.612-.44-1.832.367-.22 1.026.293 1.613 1.1.513.805.732 1.611.44 1.831zM10.29 3.99c-.366 0-.66-.805-.66-1.758S9.85.4 10.29.4c.44 0 .66.806.66 1.759 0 .952-.293 1.832-.66 1.832z"/><path d="M10.144 16.815c-2.198 0-4.323-1.1-5.57-2.931l.734-.513c1.099 1.612 2.93 2.491 4.836 2.491a5.882 5.882 0 004.837-2.565l.733.513c-1.246 1.906-3.298 3.005-5.57 3.005zm5.057-9.747c-.513-.879-1.246-1.538-2.126-2.051a5.875 5.875 0 00-2.93-.807c-1.98 0-3.885 1.026-4.91 2.712L4.5 6.409C5.747 4.504 7.872 3.33 10.144 3.33a6.8 6.8 0 013.371.88 6.75 6.75 0 012.418 2.344l-.732.513zM1 7.655h1.32v1.832h1.465V7.655h1.319v4.983h-1.32v-1.979H2.32v1.979H1V7.655zm5.276 0h3.225v1.099H7.595v.806h1.613v1.1H7.595v.879h1.979v1.099H6.276V7.655zm4.25 0h1.32v3.884h1.905v1.099h-3.224V7.655zm4.104 0h1.393l.806 2.052.293.806.293-.806.733-2.052h1.393v4.983h-1.246v-1.906c0-.146 0-.292.073-.439 0-.147 0-.293.073-.44 0-.146.074-.293.074-.44l-.44 1.173-.66 1.686h-.513l-.66-1.686-.586-1.172c0 .146 0 .293.074.44 0 .146.073.292.073.439 0 .147 0 .293.073.44v1.905h-1.245V7.655z"/></g><defs><clipPath id="clip0"><path fill="#fff" d="M1 .4h18.467v19.2H1z"/></clipPath></defs></svg>